<svg xmlns="http://www.w3.org/2000/svg" xmlns:xlink="http://www.w3.org/1999/xlink" width="336" height="88" viewBox="0 0 336 88">
  <defs>
    <clipPath id="clip-path">
      <rect id="矩形_69" data-name="矩形 69" width="336" height="88" rx="6" transform="translate(1931 671)" fill="#56ace0"/>
    </clipPath>
  </defs>
  <g id="组_14" data-name="组 14" transform="translate(-2145 -609)">
    <rect id="矩形_64" data-name="矩形 64" width="336" height="88" rx="6" transform="translate(2145 609)" fill="#73bab2"/>
    <g id="蒙版组_2" data-name="蒙版组 2" transform="translate(214 -62)" clip-path="url(#clip-path)">
      <g id="组_9" data-name="组 9" transform="translate(9 -11)">
        <path id="联合_6" data-name="联合 6" d="M14.512,143.334c-9.373-1.876-15.776-9.363-14.3-16.721s10.272-11.8,19.646-9.926a21.645,21.645,0,0,1,4.553,1.452V27.082a12.37,12.37,0,0,1,10.126-12.16L114.077.209a12.376,12.376,0,0,1,14.631,12.16v99.7a37.958,37.958,0,0,1-.755,7.533l-.005.03c-1.476,7.359-10.271,11.8-19.646,9.927S92.527,120.192,94,112.834s10.271-11.8,19.644-9.926a21.477,21.477,0,0,1,5.406,1.858V54.749a7.967,7.967,0,0,0-3.659-6.7l-33-21.207a10.017,10.017,0,0,0-10.955.083L38.8,48.589a10.593,10.593,0,0,0-4.736,8.823v71.371a10.946,10.946,0,0,1,.092,4.624c-1.247,6.219-7.721,10.356-15.357,10.356A21.887,21.887,0,0,1,14.512,143.334ZM71.03,110.493V38.841a5.517,5.517,0,0,1,11.034,0v71.652a5.517,5.517,0,0,1-11.034,0ZM47.581,99.81V58.472a5.517,5.517,0,0,1,11.034,0V99.81a5.517,5.517,0,0,1-11.034,0ZM.686,94.981V81.2a5.517,5.517,0,0,1,11.034,0v13.78a5.517,5.517,0,0,1-11.034,0Zm93.791-4.12V49.524a5.517,5.517,0,0,1,11.034,0V90.861a5.517,5.517,0,0,1-11.034,0Zm46.9-22.729V54.354a5.517,5.517,0,0,1,11.034,0V68.132a5.517,5.517,0,0,1-11.034,0Z" transform="translate(1936 594.571)" fill="#01231f" stroke="rgba(0,0,0,0)" stroke-width="1" opacity="0.1"/>
        <path id="联合_7" data-name="联合 7" d="M14.512,143.334c-9.373-1.876-15.776-9.363-14.3-16.721s10.272-11.8,19.646-9.926a21.645,21.645,0,0,1,4.553,1.452V27.082a12.37,12.37,0,0,1,10.126-12.16L114.077.209a12.376,12.376,0,0,1,14.631,12.16v99.7a37.958,37.958,0,0,1-.755,7.533l-.005.03c-1.476,7.359-10.271,11.8-19.646,9.927S92.527,120.192,94,112.834s10.271-11.8,19.644-9.926a21.477,21.477,0,0,1,5.406,1.858V54.749a7.967,7.967,0,0,0-3.659-6.7l-33-21.207a10.017,10.017,0,0,0-10.955.083L38.8,48.589a10.593,10.593,0,0,0-4.736,8.823v71.371a10.946,10.946,0,0,1,.092,4.624c-1.247,6.219-7.721,10.356-15.357,10.356A21.887,21.887,0,0,1,14.512,143.334ZM71.03,110.493V38.841a5.517,5.517,0,0,1,11.034,0v71.652a5.517,5.517,0,0,1-11.034,0ZM47.581,99.81V58.472a5.517,5.517,0,0,1,11.034,0V99.81a5.517,5.517,0,0,1-11.034,0ZM.686,94.981V81.2a5.517,5.517,0,0,1,11.034,0v13.78a5.517,5.517,0,0,1-11.034,0Zm93.791-4.12V49.524a5.517,5.517,0,0,1,11.034,0V90.861a5.517,5.517,0,0,1-11.034,0Zm46.9-22.729V54.354a5.517,5.517,0,0,1,11.034,0V68.132a5.517,5.517,0,0,1-11.034,0Z" transform="translate(2120 717.571)" fill="#01231f" stroke="rgba(0,0,0,0)" stroke-width="1" opacity="0.1"/>
      </g>
    </g>
    <g id="组_10" data-name="组 10" transform="translate(-1281.503 38.76)">
      <path id="路径_7" data-name="路径 7" d="M3662.561,613.978a1.485,1.485,0,0,0-.237-1.609l-3.506-4.008h8.694l-3.452,3.945a1.5,1.5,0,0,0,1.13,2.491h9.05a.644.644,0,0,0,0-1.287h-9.05a.215.215,0,0,1-.162-.356l4.193-4.793h3.945a.644.644,0,0,0,0-1.287h-4.131a.645.645,0,0,0-.186,0h-4.907v-1.931a.644.644,0,0,0-1.287,0v1.931h-10.082a.644.644,0,0,0,0,1.287h4.533l4.248,4.855a.215.215,0,0,1-.161.356h-9.05a.644.644,0,0,0,0,1.287h9.05A1.486,1.486,0,0,0,3662.561,613.978Z" transform="translate(-70.798 -7.816)" fill="#fff"/>
      <path id="路径_8" data-name="路径 8" d="M3716.758,615.523a.643.643,0,0,0,.9-.129l5.148-6.865a.644.644,0,0,0-1.03-.772l-5.148,6.865A.644.644,0,0,0,3716.758,615.523Z" transform="translate(-107.911 -9.529)" fill="#fff"/>
      <path id="路径_9" data-name="路径 9" d="M3719.964,626.765a1.069,1.069,0,0,0-1.206.564l-2.191,4.381a.644.644,0,0,0,1.152.576l1.784-3.568v10.52a.643.643,0,0,1-.159.423l-2.685,3.068a.644.644,0,0,0,.969.848l2.685-3.068a1.932,1.932,0,0,0,.478-1.271V627.809A1.068,1.068,0,0,0,3719.964,626.765Z" transform="translate(-107.91 -20.512)" fill="#fff"/>
      <path id="路径_10" data-name="路径 10" d="M3750.135,611.365h-1.93v-2.789a1.5,1.5,0,0,0-1.5-1.5h-6.221v-1.931a.644.644,0,0,0-1.287,0v1.931h-7.079a.644.644,0,0,0,0,1.287h7.079v3h-7.937a.644.644,0,0,0,0,1.287h7.937v2.574h-7.079a.644.644,0,0,0,0,1.287h7.079v3.861h-6.865a.644.644,0,0,0,0,1.287h6.865v3h-8.152a.644.644,0,0,0,0,1.287h8.152v4.934a.644.644,0,0,0,1.287,0v-4.934h8.152a.644.644,0,0,0,0-1.287h-8.152v-3h6.865a.644.644,0,0,0,0-1.287h-6.865v-3.861h6.221a1.5,1.5,0,0,0,1.5-1.5v-2.36h1.93a.644.644,0,0,0,0-1.287Zm-9.653-3h6.221a.214.214,0,0,1,.215.214v2.789h-6.436Zm6.436,6.65a.215.215,0,0,1-.215.215h-6.221v-2.574h6.436Z" transform="translate(-115.847 -7.816)" fill="#fff"/>
      <path id="路径_11" data-name="路径 11" d="M3782.791,630.009V616.041a.644.644,0,0,0,.214.036h18.878a1.5,1.5,0,0,0,1.5-1.5V612a1.5,1.5,0,0,0-1.5-1.5H3783a1.5,1.5,0,0,0-1.5,1.5v18.007a.649.649,0,0,1-.135.4l-2.732,3.513a.644.644,0,1,0,1.016.79l2.733-3.513A1.943,1.943,0,0,0,3782.791,630.009Zm0-18.007a.215.215,0,0,1,.214-.214h18.878a.215.215,0,0,1,.215.214v2.574a.215.215,0,0,1-.215.215H3783a.642.642,0,0,0-.214.036Z" transform="translate(-143.311 -11.241)" fill="#fff"/>
      <path id="路径_12" data-name="路径 12" d="M3808.232,638.655a.644.644,0,0,0,0-1.287H3801.8v-3h5.445a1.5,1.5,0,0,0,.925-2.685l-3.7-2.893h5.27a.644.644,0,0,0,0-1.287h-17.59a.644.644,0,0,0,0,1.287h5.13l-3.507,2.922a1.5,1.5,0,0,0,.961,2.655h5.782v3h-6.436a.644.644,0,0,0,0,1.287h6.436v1.721a.212.212,0,0,1-.031.112l-.912,1.5a.216.216,0,0,1-.183.1h-7.24a.644.644,0,0,0,0,1.287h7.24a1.509,1.509,0,0,0,1.282-.721l.91-1.5a1.5,1.5,0,0,0,.22-.782v-1.721Zm-13.706-5.719a.2.2,0,0,1,.064-.238l4.615-3.846a.6.6,0,0,0,.064-.065h3.122a.656.656,0,0,0,.082.078l4.9,3.829a.215.215,0,0,1-.132.384h-12.514A.2.2,0,0,1,3794.526,632.936Z" transform="translate(-150.733 -20.948)" fill="#fff"/>
      <path id="路径_13" data-name="路径 13" d="M3824.866,661.5h-7.723a.644.644,0,0,0,0,1.287h7.723a.644.644,0,0,0,0-1.287Z" transform="translate(-165.007 -40.361)" fill="#fff"/>
      <path id="路径_14" data-name="路径 14" d="M3659,634.787h16.732a.644.644,0,0,0,0-1.287H3659a1.5,1.5,0,0,0-1.5,1.5v10.3a1.5,1.5,0,0,0,1.5,1.5h15.016a1.5,1.5,0,0,0,1.5-1.5V640.15a1.5,1.5,0,0,0-1.5-1.5h-12.871a.644.644,0,0,0,0,1.287h12.871a.215.215,0,0,1,.214.214V645.3a.215.215,0,0,1-.214.215H3659a.215.215,0,0,1-.215-.215V635A.215.215,0,0,1,3659,634.787Z" transform="translate(-74.224 -24.374)" fill="#fff"/>
      <path id="路径_15" data-name="路径 15" d="M3659.866,674.572a.3.3,0,0,0-.243.131l-1.886,2.634L3655.8,674.7a.264.264,0,0,0-.233-.131.3.3,0,0,0-.205.084.255.255,0,0,0-.094.2.286.286,0,0,0,.075.2l2.092,2.858v2.961a.272.272,0,0,0,.281.28.287.287,0,0,0,.205-.079.264.264,0,0,0,.084-.2V677.9l2.083-2.868a.433.433,0,0,0,.056-.177.275.275,0,0,0-.084-.192A.263.263,0,0,0,3659.866,674.572Z" transform="translate(-72.951 -47.824)" fill="#fff"/>
      <path id="路径_16" data-name="路径 16" d="M3672.856,674.66a.3.3,0,0,0-.215.079.274.274,0,0,0-.083.21v5.96a.272.272,0,0,0,.289.289.279.279,0,0,0,.205-.084.315.315,0,0,0,.094-.206v-5.96a.287.287,0,0,0-.29-.289Z" transform="translate(-82.821 -47.874)" fill="#fff"/>
      <path id="路径_17" data-name="路径 17" d="M3686.265,674.66a.254.254,0,0,0-.261.261v5.268l-4.026-5.427a.26.26,0,0,0-.224-.1.264.264,0,0,0-.271.28v6.006a.242.242,0,0,0,.075.177.252.252,0,0,0,.187.075.258.258,0,0,0,.183-.075.235.235,0,0,0,.079-.177v-5.24l4.007,5.4a.332.332,0,0,0,.1.065.3.3,0,0,0,.126.028.28.28,0,0,0,.29-.3v-5.978a.264.264,0,0,0-.07-.187A.25.25,0,0,0,3686.265,674.66Z" transform="translate(-87.917 -47.874)" fill="#fff"/>
      <path id="路径_18" data-name="路径 18" d="M3704.43,680.647H3701.4V674.94a.263.263,0,0,0-.084-.2.287.287,0,0,0-.205-.079.3.3,0,0,0-.215.079.263.263,0,0,0-.084.2v5.978a.272.272,0,0,0,.28.28h3.334a.271.271,0,0,0,.281-.28.258.258,0,0,0-.079-.2A.283.283,0,0,0,3704.43,680.647Z" transform="translate(-98.956 -47.874)" fill="#fff"/>
      <path id="路径_19" data-name="路径 19" d="M3718.787,674.638a.242.242,0,0,0-.145.051.405.405,0,0,0-.117.135l-2.214,5.4-2.251-5.38a.289.289,0,0,0-.28-.206.274.274,0,0,0-.187.075.25.25,0,0,0-.084.2.343.343,0,0,0,.028.15l2.485,5.95a.3.3,0,0,0,.107.131.275.275,0,0,0,.155.046.281.281,0,0,0,.159-.051.32.32,0,0,0,.111-.136l2.494-5.959a.4.4,0,0,0,.028-.14.245.245,0,0,0-.083-.182A.29.29,0,0,0,3718.787,674.638Z" transform="translate(-106.203 -47.862)" fill="#fff"/>
      <path id="路径_20" data-name="路径 20" d="M3739.525,674.616a.277.277,0,0,0-.28.178l-1.812,5.343-1.56-3.914a.333.333,0,0,0-.107-.136.229.229,0,0,0-.164-.042.259.259,0,0,0-.261.178l-1.569,3.914-1.831-5.343a.24.24,0,0,0-.1-.131.309.309,0,0,0-.168-.047.327.327,0,0,0-.21.079.258.258,0,0,0-.1.21.247.247,0,0,0,.028.112l2.064,5.978a.207.207,0,0,0,.088.131.276.276,0,0,0,.155.046.288.288,0,0,0,.28-.177l1.616-3.989,1.616,3.989a.267.267,0,0,0,.28.177.274.274,0,0,0,.154-.046.243.243,0,0,0,.1-.131l2.064-5.978.019-.121a.26.26,0,0,0-.084-.206A.311.311,0,0,0,3739.525,674.616Z" transform="translate(-116.396 -47.849)" fill="#fff"/>
      <path id="路径_21" data-name="路径 21" d="M3761.893,674.66a.257.257,0,0,0-.2.079.281.281,0,0,0-.075.2v3.867a1.866,1.866,0,0,1-.257.962,1.918,1.918,0,0,1-.691.7,1.826,1.826,0,0,1-.948.257,1.807,1.807,0,0,1-.939-.257,1.911,1.911,0,0,1-.939-1.658V674.94a.263.263,0,0,0-.084-.2.277.277,0,0,0-.2-.079.3.3,0,0,0-.22.079.272.272,0,0,0-.079.2v3.867a2.463,2.463,0,0,0,.327,1.252,2.449,2.449,0,0,0,4.25,0,2.475,2.475,0,0,0,.326-1.252V674.94a.271.271,0,0,0-.28-.28Z" transform="translate(-131.189 -47.874)" fill="#fff"/>
      <path id="路径_22" data-name="路径 22" d="M3775.752,687.766h-.065a.312.312,0,0,0-.243.093.378.378,0,0,0-.084.262v.2a.4.4,0,0,0,.084.266.3.3,0,0,0,.243.1h.065a.3.3,0,0,0,.243-.1.4.4,0,0,0,.084-.266v-.2a.378.378,0,0,0-.084-.262A.313.313,0,0,0,3775.752,687.766Z" transform="translate(-141.517 -55.358)" fill="#fff"/>
      <path id="路径_23" data-name="路径 23" d="M3784.607,675.37a2.681,2.681,0,0,1,1.369-.355,2.9,2.9,0,0,1,1.635.5.279.279,0,0,0,.149.047.266.266,0,0,0,.215-.1.352.352,0,0,0,.065-.187.259.259,0,0,0-.14-.233,3.285,3.285,0,0,0-.9-.42,3.56,3.56,0,0,0-1.023-.149,3.229,3.229,0,0,0-1.653.434,3.193,3.193,0,0,0-1.186,1.205,3.612,3.612,0,0,0,0,3.461,3.157,3.157,0,0,0,1.2,1.191,3.27,3.27,0,0,0,1.639.425,3.526,3.526,0,0,0,1.037-.163,3.423,3.423,0,0,0,.9-.406.241.241,0,0,0,.13-.224.3.3,0,0,0-.28-.29.294.294,0,0,0-.159.047,2.893,2.893,0,0,1-1.625.486,2.684,2.684,0,0,1-1.359-.351,2.529,2.529,0,0,1-.967-.99,3.207,3.207,0,0,1,0-2.923A2.532,2.532,0,0,1,3784.607,675.37Z" transform="translate(-145.707 -47.763)" fill="#fff"/>
      <path id="路径_24" data-name="路径 24" d="M3805.142,674.871a3.254,3.254,0,0,0-3.231,0,2.988,2.988,0,0,0-1.112,1.2,3.936,3.936,0,0,0,0,3.465,3.071,3.071,0,0,0,5.455,0,3.938,3.938,0,0,0,0-3.465A2.987,2.987,0,0,0,3805.142,674.871Zm.593,4.386a2.417,2.417,0,0,1-.9.995,2.6,2.6,0,0,1-2.625,0,2.417,2.417,0,0,1-.9-.995,3.437,3.437,0,0,1,0-2.905,2.42,2.42,0,0,1,.9-.995,2.6,2.6,0,0,1,2.625,0,2.42,2.42,0,0,1,.9.995,3.435,3.435,0,0,1,0,2.905Z" transform="translate(-155.813 -47.75)" fill="#fff"/>
      <path id="路径_25" data-name="路径 25" d="M3827.258,674.657a.26.26,0,0,0-.252.121l-2.466,3.671-2.447-3.671a.251.251,0,0,0-.112-.088.35.35,0,0,0-.14-.033.265.265,0,0,0-.2.084.279.279,0,0,0-.079.2v5.978a.28.28,0,0,0,.074.2.257.257,0,0,0,.2.079.272.272,0,0,0,.281-.28v-5.156l2.2,3.343a.265.265,0,0,0,.205.112h.019a.243.243,0,0,0,.215-.112l2.2-3.325v5.137a.264.264,0,0,0,.084.2.3.3,0,0,0,.215.079.287.287,0,0,0,.206-.079.265.265,0,0,0,.084-.2v-5.978a.272.272,0,0,0-.079-.2A.261.261,0,0,0,3827.258,674.657Z" transform="translate(-167.896 -47.872)" fill="#fff"/>
      <path id="路径_26" data-name="路径 26" d="M3529.716,653.465a1.716,1.716,0,0,0,1.716-1.716v-4.29a1.716,1.716,0,1,0-3.432,0v4.29A1.716,1.716,0,0,0,3529.716,653.465Z" transform="translate(-0.284 -31.363)" fill="#fff"/>
      <path id="路径_27" data-name="路径 27" d="M3563.716,629.247a1.716,1.716,0,0,0-1.716,1.716v12.871a1.716,1.716,0,1,0,3.432,0V630.963A1.716,1.716,0,0,0,3563.716,629.247Z" transform="translate(-19.697 -21.945)" fill="#fff"/>
      <path id="路径_28" data-name="路径 28" d="M3580.716,615a1.716,1.716,0,0,0-1.716,1.716v22.31a1.716,1.716,0,1,0,3.432,0v-22.31A1.716,1.716,0,0,0,3580.716,615Z" transform="translate(-29.403 -13.811)" fill="#fff"/>
      <path id="路径_29" data-name="路径 29" d="M3599.432,637.34V624.469a1.716,1.716,0,1,0-3.432,0V637.34a1.716,1.716,0,1,0,3.432,0Z" transform="translate(-39.11 -18.237)" fill="#fff"/>
      <path id="路径_30" data-name="路径 30" d="M3631.716,626.258a1.716,1.716,0,0,0-1.716,1.716v4.29a1.716,1.716,0,1,0,3.432,0v-4.29A1.716,1.716,0,0,0,3631.716,626.258Z" transform="translate(-58.522 -20.239)" fill="#fff"/>
      <path id="路径_31" data-name="路径 31" d="M3562.987,590.877l-24.742,4.581a3.85,3.85,0,0,0-3.15,3.786V627.6a6.742,6.742,0,0,0-1.416-.452c-2.916-.584-5.652.8-6.111,3.091s1.533,4.622,4.448,5.206,5.652-.8,6.111-3.091a3.413,3.413,0,0,0-.029-1.44V608.688a3.3,3.3,0,0,1,1.473-2.747l10.151-6.746a3.113,3.113,0,0,1,3.408-.026l10.266,6.6a2.481,2.481,0,0,1,1.138,2.086v15.573a6.678,6.678,0,0,0-1.682-.578c-2.916-.584-5.651.8-6.111,3.091s1.532,4.622,4.448,5.206,5.652-.8,6.111-3.091l0-.009a11.845,11.845,0,0,0,.235-2.346V594.663A3.851,3.851,0,0,0,3562.987,590.877Z" fill="#fff"/>
    </g>
  </g>
</svg>
